# xmcd
#
# Track frame offsets:
#	150
#	30589
#	45412
#	60764
#	78083
#	92522
#	108546
#	135770
#	156607
#	168695
#	183743
#	198007
#	214526
#	227909
#	243196
#	259220
#	281356
#	298532
#	312552
#
# Disc length: 4394 seconds
#
# Revision: 1
# Processed by: cddbd v1.5.1PL0 Copyright (c) Steve Scherf et al.
# Submitted via: audiograbber 1.83.01
#
DISCID=fd112813
DTITLE=Razni Pjevaci - Narodni Hitovi 2004
DYEAR=2004
DGENRE=Narodna
TTITLE0=Halid Beslic - Dana Premalo
TTITLE1=Ceca - Prljavo, Prljavo
TTITLE2=Emir Dulovic - Sarajevo Sto Te Volim
TTITLE3=Amra Helebic - Devet Dana Sijalo Je Sunce
TTITLE4=Fazlija - Napila Se Moja Mila
TTITLE5=Stoja - Duplo Pice
TTITLE6=Pike - Sretni Dom
TTITLE7=Sako Polumenta - Medena
TTITLE8=Sanja Maletic - S Vremena Na Vreme
TTITLE9=Kemal Malovcic - Carinik
TTITLE10=Elvic Baljic - Novi Dan
TTITLE11=Erna Dzeba - Kol'ko Kosta Malo Srece
TTITLE12=Semir Hasic - Malo Ljubavi malo Nevjere
TTITLE13=Indira Radic - Zmaj
TTITLE14=Dejan Matic - Ili Me Ljubi Ili Me Ubi
TTITLE15=Zehra Bajraktarevic - Nevjero
TTITLE16=Nihad Alibegovic - Ti I Ja Svijeta Dva
TTITLE17=Snezana Durisic - Za Tebe Slobodna
TTITLE18=Novica Zdravkovic - Splavovi
EXTD=Written By eDy !!!
EXTT0=
EXTT1=
EXTT2=
EXTT3=
EXTT4=
EXTT5=
EXTT6=
EXTT7=
EXTT8=
EXTT9=
EXTT10=
EXTT11=
EXTT12=
EXTT13=
EXTT14=
EXTT15=
EXTT16=
EXTT17=
EXTT18=
PLAYORDER=
